:FULLY-SPECIFIED
:DEGREES
172
root -0.567874014377594 -0.567874014377594 -0.567874014377594 -0.5678755879732001 -0.5678755879732001 -0.5678755879732001
lhipjoint -9.671654586443837e-08 -1.5341245206083327e-07 1.0672170578144923e-06
lfemur -16.7664068650888 -3.351983637075458 -15.274652569222996
ltibia 22.497289041019048 -7.528685388716051e-07 -1.273172273213103e-06
lfoot -18.7494617905955 -3.758349002671901e-07 13.135492816462008
ltoes -54.64253447338292 -5.403759859362769e-07 5.61591710550136e-07
rhipjoint 1.1005675908711953e-07 6.870210827458292e-07 -1.494104084495789e-06
rfemur -6.365599702668484 4.970561312336883 11.226466042500846
rtibia 1.5893441454486528 6.580582902610487e-08 -2.545501012435807e-06
rfoot -17.07582297222684 1.4393974244193684e-07 -15.732333300221795
rtoes -3.057725427252968 6.266034695722479e-07 -3.246740243274151e-07
lowerback 22.47338167137671 0.8622704015790897 -0.8932659067543134
upperback 0.0178267753909401 1.0606602896546917 1.2852370162864166
thorax -12.603758320708284 0.598502262933243 1.6087694168915807
lowerneck -11.457395592112624 -2.029057957114028 -1.9248847656666397
upperneck 23.5797988923852 -3.0151462414105206 2.3060364286666197
head 9.370881229926802 -1.331763944747426 0.7745436119620046
lclavicle -1.4085775951116125e-07 5.4855408257763046e-08 -1.0938974842598547e-06
lhumerus -13.838443933008673 26.15378129431389 10.9800183030948
lradius 32.566546868295895 -6.45985006467963e-07 2.230717495390245e-06
lwrist -1.1325787287404403e-06 -49.704915590299834 2.730925263921259e-07
lhand -4.562975323145072 2.6246558075710764e-07 -26.656099019086014
lfingers 7.125022823272814 9.845282338726802e-08 3.18924141240953e-07
lthumb 21.213298854421275 -1.2803152392500461e-07 2.20318914769186
rclavicle 1.398304276268298e-07 4.3880174074018323e-07 -1.3740421654916584e-06
rhumerus -17.364459936362408 -26.70098019212217 -7.623418311914059
rradius 38.948737100458345 -1.3095213823346146e-06 -1.8300013957387778e-06
rwrist 3.814212010652752e-07 39.50462912153275 8.526379083414994e-07
rhand -6.972260092956778 2.0321462048512455e-07 -36.68780446630613
rfingers 7.125022396385991 5.1024341088409163e-08 -3.1892353057445414e-07
rthumb 18.897492480477187 1.5447771905696147e-06 -65.78980959509936
173
root -0.567874014377594 -0.567874014377594 -0.567874014377594 -0.5678755879732001 -0.5678755879732001 -0.5678755879732001
lhipjoint -9.671654586443837e-08 -1.5341245206083327e-07 1.0672170578144923e-06
lfemur -16.619557797933528 -3.3098411564530674 -15.676187437696997
ltibia 22.93120583634808 -1.2474353265084499e-06 -4.773468065915272e-07
lfoot -19.09826589112971 -1.888177761083863e-06 13.185898758763056
ltoes -55.490963496608984 8.184681152877264e-07 2.073602572346939e-06
rhipjoint 1.1005675908711953e-07 6.870210827458292e-07 -1.494104084495789e-06
rfemur -5.675014216727304 5.009369593427249 11.414761551313404
rtibia 0.9373479476575757 2.3138102752210406e-08 -8.445591467839574e-07
rfoot -17.12724234384599 -2.8893771903749024e-07 -15.98059872372071
rtoes -3.1091834321296097 6.238984205378819e-07 -2.8381478688983823e-07
lowerback 22.50912746639797 0.9377578657294822 -0.8255651250619999
upperback -0.17819943534243432 1.1872370351882506 1.3710242989834827
thorax -12.852447215935742 0.6634435414791656 1.6324837269681591
lowerneck -11.457395592112624 -2.029057957114028 -1.9248847656666397
upperneck 23.5797988923852 -3.0151462414105206 2.3060364286666197
head 9.370881229926802 -1.331763944747426 0.7745436119620046
lclavicle -1.4085775951116125e-07 5.4855408257763046e-08 -1.0938974842598547e-06
lhumerus -18.970730891399942 23.17976154288672 13.478963393028085
lradius 35.06601019883246 -1.4821344104520065e-06 2.3387203794862626e-06
lwrist -1.0499311247873e-06 -47.948795407514105 2.531655370907585e-07
lhand -4.562975323145072 2.6246558075710764e-07 -26.656099019086014
lfingers 7.125022823272814 9.845282338726802e-08 3.18924141240953e-07
lthumb 21.213298854421275 -1.2803152392500461e-07 2.20318914769186
rclavicle 1.398304276268298e-07 4.3880174074018323e-07 -1.3740421654916584e-06
rhumerus -23.124947567250075 -24.628772514926585 -9.391408509703629
rradius 41.721244073255335 -2.202164358348437e-06 -2.7718282657912527e-06
rwrist 3.564251709347785e-07 37.88714128833077 7.967608041423005e-07
rhand -6.972260092956778 2.0321462048512455e-07 -36.68780446630613
rfingers 7.125022396385991 5.1024341088409163e-08 -3.1892353057445414e-07
rthumb 18.897492480477187 1.5447771905696147e-06 -65.78980959509936
174
root -0.567874014377594 -0.567874014377594 -0.567874014377594 -0.5678755879732001 -0.5678755879732001 -0.5678755879732001
lhipjoint -9.671654586443837e-08 -1.5341245206083327e-07 1.0672170578144923e-06
lfemur -16.10763341209378 -3.45828784754389 -16.0211905379581
ltibia 23.07639516753504 -8.577488816035491e-07 -3.955760179529728e-07
lfoot -19.41623339510861 -8.439132142948083e-07 13.448505871971706
ltoes -56.46050543419771 -1.0052931848326448e-08 1.4761667738698328e-06
rhipjoint 1.1005675908711953e-07 6.870210827458292e-07 -1.494104084495789e-06
rfemur -4.578849963436651 5.1270405193350514 11.69583493471683
rtibia -0.14525081622970437 -9.243089473668162e-09 -1.7089449045635352e-06
rfoot -17.05945100878632 -2.3980217960777128e-06 -16.360372609499052
rtoes -3.0544605968297023 -2.2690657230734627e-07 -3.0111807302337275e-07
lowerback 22.27720156294102 1.0104580790899806 -0.7301473823569218
upperback -0.3315099548340331 1.3170380568968787 1.4944322636289789
thorax -12.947631024661746 0.7325513955013547 1.688081466812063
lowerneck -11.457395592112624 -2.029057957114028 -1.9248847656666397
upperneck 23.5797988923852 -3.0151462414105206 2.3060364286666197
head 9.370881229926802 -1.331763944747426 0.7745436119620046
lclavicle -1.4085775951116125e-07 5.4855408257763046e-08 -1.0938974842598547e-06
lhumerus -22.805291298998895 20.630149255916635 18.782359396732865
lradius 37.53324528177031 -1.1929642819228324e-06 1.8356130137521275e-06
lwrist -1.013962460894566e-06 -47.1330385941828 2.444919354744704e-07
lhand -4.562975323145072 2.6246558075710764e-07 -26.656099019086014
lfingers 7.125022823272814 9.845282338726802e-08 3.18924141240953e-07
lthumb 21.213298854421275 -1.2803152392500461e-07 2.20318914769186
rclavicle 1.398304276268298e-07 4.3880174074018323e-07 -1.3740421654916584e-06
rhumerus -27.353650871093784 -22.553148035598703 -13.153298265854586
rradius 44.76557891464049 -3.0660595982628207e-06 -3.812265562076571e-06
rwrist 3.3882128421718953e-07 36.684119579248915 7.574107271788594e-07
rhand -6.972260092956778 2.0321462048512455e-07 -36.68780446630613
rfingers 7.125022396385991 5.1024341088409163e-08 -3.1892353057445414e-07
rthumb 18.897492480477187 1.5447771905696147e-06 -65.78980959509936
175
root -0.567874014377594 -0.567874014377594 -0.567874014377594 -0.5678755879732001 -0.5678755879732001 -0.5678755879732001
lhipjoint -9.671654586443837e-08 -1.5341245206083327e-07 1.0672170578144923e-06
lfemur -15.169018571066871 -3.8731270707474303 -16.209954768502445
ltibia 22.80156201571207 -4.0170578649058886e-07 -1.197280167403391e-06
lfoot -19.640637552742085 -5.125527480272087e-08 13.918956495397492
ltoes -57.45011446756793 3.805477698608704e-08 1.5071031387011176e-06
rhipjoint 1.1005675908711953e-07 6.870210827458292e-07 -1.494104084495789e-06
rfemur -3.103500714740159 5.302385989481265 12.07622182997318
rtibia -1.5746732192765829 -9.466534253926892e-08 -1.721825285912589e-06
rfoot -16.90120577100088 1.9194793044814547e-06 -16.81250039670263
rtoes -2.7619782361914162 -2.060816488083081e-07 -3.389096781928968e-07
lowerback 21.58966447580378 1.0622040191288202 -0.5634087509777176
upperback -0.4155895568364636 1.4364297635887016 1.6440407272089381
thorax -12.779177215388076 0.7977117203483937 1.7498129299740497
lowerneck -11.457395592112624 -2.029057957114028 -1.9248847656666397
upperneck 23.5797988923852 -3.0151462414105206 2.3060364286666197
head 9.370881229926802 -1.331763944747426 0.7745436119620046
lclavicle -1.4085775951116125e-07 5.4855408257763046e-08 -1.0938974842598547e-06
lhumerus -25.244529436528868 18.63220110292472 26.585283617771324
lradius 39.692322719924704 8.251346087889488e-07 1.9025754451270371e-06
lwrist -1.0192863532092117e-06 -47.255862470932556 2.4577466589972336e-07
lhand -4.562975323145072 2.6246558075710764e-07 -26.656099019086014
lfingers 7.125022823272814 9.845282338726802e-08 3.18924141240953e-07
lthumb 21.213298854421275 -1.2803152392500461e-07 2.20318914769186
rclavicle 1.398304276268298e-07 4.3880174074018323e-07 -1.3740421654916584e-06
rhumerus -29.782015347465098 -20.4252555336473 -18.584990835381593
rradius 47.749316317709294 -1.3366292753291657e-06 -3.7418056401072996e-06
rwrist 3.2985026257152844e-07 36.04947206194967 7.3735435291305e-07
rhand -6.972260092956778 2.0321462048512455e-07 -36.68780446630613
rfingers 7.125022396385991 5.1024341088409163e-08 -3.1892353057445414e-07
rthumb 18.897492480477187 1.5447771905696147e-06 -65.78980959509936
